# WaveFront *.obj file (generated by Autodesk ATF)

mtllib pionowy.mtl

g Solid1

v -0.030000 0.000000 0.175000
v -0.030000 0.000000 0.185000
v -0.022981 -0.019284 0.175000
v -0.022981 -0.019284 0.185000
v -0.022981 0.019284 0.175000
v -0.022981 0.019284 0.185000
v -0.020000 0.000000 0.150000
v -0.020000 0.000000 0.175000
v -0.018794 -0.006840 -0.160000
v -0.018794 -0.006840 -0.150000
v -0.018794 0.006840 -0.160000
v -0.018794 0.006840 -0.150000
v -0.015321 -0.012856 0.150000
v -0.015321 -0.012856 0.175000
v -0.015321 0.012856 0.150000
v -0.015321 0.012856 0.175000
v -0.012500 0.000000 -0.150000
v -0.012500 0.000000 0.150000
v -0.010000 -0.017321 -0.160000
v -0.010000 -0.017321 -0.150000
v -0.010000 0.017321 -0.160000
v -0.010000 0.017321 -0.150000
v -0.009576 -0.008035 -0.150000
v -0.009576 -0.008035 0.150000
v -0.009576 0.008035 -0.150000
v -0.009576 0.008035 0.150000
v -0.005209 -0.029544 0.175000
v -0.005209 -0.029544 0.185000
v -0.005209 0.029544 0.175000
v -0.005209 0.029544 0.185000
v -0.003473 -0.019696 0.150000
v -0.003473 -0.019696 0.175000
v -0.003473 0.019696 0.150000
v -0.003473 0.019696 0.175000
v -0.002171 -0.012310 -0.150000
v -0.002171 -0.012310 0.150000
v -0.002171 0.012310 -0.150000
v -0.002171 0.012310 0.150000
v 0.003473 -0.019696 -0.160000
v 0.003473 -0.019696 -0.150000
v 0.003473 0.019696 -0.160000
v 0.003473 0.019696 -0.150000
v 0.006250 -0.010825 -0.150000
v 0.006250 -0.010825 0.150000
v 0.006250 0.010825 -0.150000
v 0.006250 0.010825 0.150000
v 0.010000 -0.017321 0.150000
v 0.010000 -0.017321 0.175000
v 0.010000 0.017321 0.150000
v 0.010000 0.017321 0.175000
v 0.011746 -0.004275 -0.150000
v 0.011746 -0.004275 0.150000
v 0.011746 0.004275 -0.150000
v 0.011746 0.004275 0.150000
v 0.015000 -0.025981 0.175000
v 0.015000 -0.025981 0.185000
v 0.015000 0.025981 0.175000
v 0.015000 0.025981 0.185000
v 0.015321 -0.012856 -0.160000
v 0.015321 -0.012856 -0.150000
v 0.015321 0.012856 -0.160000
v 0.015321 0.012856 -0.150000
v 0.018794 -0.006840 0.150000
v 0.018794 -0.006840 0.175000
v 0.018794 0.006840 0.150000
v 0.018794 0.006840 0.175000
v 0.020000 0.000000 -0.160000
v 0.020000 0.000000 -0.150000
v 0.028191 -0.010261 0.175000
v 0.028191 -0.010261 0.185000
v 0.028191 0.010261 0.175000
v 0.028191 0.010261 0.185000
vt -0.000000 0.000000 0.000000
vt -0.000000 0.001396 0.000000
vt -0.000000 0.002793 0.000000
vt -0.000000 0.004189 0.000000
vt -0.000000 0.005585 0.000000
vt -0.000000 -0.005585 0.000000
vt -0.000000 -0.004189 0.000000
vt -0.000000 -0.002793 0.000000
vt -0.000000 -0.001396 0.000000
vt -0.001000 0.000000 0.000000
vt -0.001000 -0.001396 0.000000
vt -0.001000 -0.002793 0.000000
vt -0.001000 -0.004189 0.000000
vt -0.001000 0.006981 0.000000
vt -0.001000 0.005585 0.000000
vt -0.001000 0.004189 0.000000
vt -0.001000 0.002793 0.000000
vt -0.001000 0.001396 0.000000
vt -0.001000 -0.005585 0.000000
vt -0.001000 -0.005585 0.000000
vt -0.000000 0.006981 0.000000
vt -0.000000 0.006981 0.000000
vt -0.000000 0.000000 0.000000
vt -0.000000 0.002094 0.000000
vt -0.000000 0.004189 0.000000
vt -0.000000 0.006283 0.000000
vt -0.000000 0.008378 0.000000
vt -0.000000 -0.008378 0.000000
vt -0.000000 -0.006283 0.000000
vt -0.000000 -0.004189 0.000000
vt -0.000000 -0.002094 0.000000
vt -0.001000 0.000000 0.000000
vt -0.001000 -0.002094 0.000000
vt -0.001000 -0.004189 0.000000
vt -0.001000 -0.006283 0.000000
vt -0.001000 0.010472 0.000000
vt -0.001000 0.008378 0.000000
vt -0.001000 0.006283 0.000000
vt -0.001000 0.004189 0.000000
vt -0.001000 0.002094 0.000000
vt -0.001000 -0.008378 0.000000
vt -0.001000 -0.008378 0.000000
vt -0.000000 0.010472 0.000000
vt -0.000000 0.010472 0.000000
vt -0.000000 0.000000 0.000000
vt -0.000000 0.001396 0.000000
vt -0.000000 0.002793 0.000000
vt -0.000000 0.004189 0.000000
vt -0.000000 0.005585 0.000000
vt -0.000000 -0.005585 0.000000
vt -0.000000 -0.004189 0.000000
vt -0.000000 -0.002793 0.000000
vt -0.000000 -0.001396 0.000000
vt -0.002500 0.000000 0.000000
vt -0.002500 -0.001396 0.000000
vt -0.002500 -0.002793 0.000000
vt -0.002500 -0.004189 0.000000
vt -0.002500 0.006981 0.000000
vt -0.002500 0.005585 0.000000
vt -0.002500 0.004189 0.000000
vt -0.002500 0.002793 0.000000
vt -0.002500 0.001396 0.000000
vt -0.002500 -0.005585 0.000000
vt -0.002500 -0.005585 0.000000
vt -0.000000 0.006981 0.000000
vt -0.000000 0.006981 0.000000
vt -0.000000 0.000000 0.000000
vt -0.000000 0.000873 0.000000
vt -0.000000 0.001745 0.000000
vt -0.000000 0.002618 0.000000
vt -0.000000 0.003491 0.000000
vt -0.000000 -0.003491 0.000000
vt -0.000000 -0.002618 0.000000
vt -0.000000 -0.001745 0.000000
vt -0.000000 -0.000873 0.000000
vt -0.030000 0.000000 0.000000
vt -0.030000 -0.000873 0.000000
vt -0.030000 -0.001745 0.000000
vt -0.030000 -0.002618 0.000000
vt -0.030000 0.004363 0.000000
vt -0.030000 0.003491 0.000000
vt -0.030000 0.002618 0.000000
vt -0.030000 0.001745 0.000000
vt -0.030000 0.000873 0.000000
vt -0.030000 -0.003491 0.000000
vt -0.030000 -0.003491 0.000000
vt -0.000000 0.004363 0.000000
vt -0.000000 0.004363 0.000000
vt 0.002000 0.000000 0.000000
vt 0.001532 0.001286 0.000000
vt 0.000347 0.001970 0.000000
vt -0.001000 0.001732 0.000000
vt -0.001879 0.000684 0.000000
vt -0.001879 -0.000684 0.000000
vt -0.001000 -0.001732 0.000000
vt 0.000347 -0.001970 0.000000
vt 0.001532 -0.001286 0.000000
vt 0.001250 0.000000 0.000000
vt 0.000958 -0.000803 0.000000
vt 0.000217 -0.001231 0.000000
vt -0.000625 -0.001083 0.000000
vt -0.001175 -0.000428 0.000000
vt -0.001175 0.000428 0.000000
vt -0.000625 0.001083 0.000000
vt 0.000217 0.001231 0.000000
vt 0.000958 0.000803 0.000000
vt 0.003000 0.000000 0.000000
vt 0.002298 0.001928 0.000000
vt 0.000521 0.002954 0.000000
vt -0.001500 0.002598 0.000000
vt -0.002819 0.001026 0.000000
vt -0.002819 -0.001026 0.000000
vt -0.001500 -0.002598 0.000000
vt 0.000521 -0.002954 0.000000
vt 0.002298 -0.001928 0.000000
vt 0.002000 0.000000 0.000000
vt 0.001532 -0.001286 0.000000
vt 0.000347 -0.001970 0.000000
vt -0.001000 -0.001732 0.000000
vt -0.001879 -0.000684 0.000000
vt -0.001879 0.000684 0.000000
vt -0.001000 0.001732 0.000000
vt 0.000347 0.001970 0.000000
vt 0.001532 0.001286 0.000000
vt -0.003000 0.000000 0.000000
vt -0.002298 -0.001928 0.000000
vt -0.000521 -0.002954 0.000000
vt 0.001500 -0.002598 0.000000
vt 0.002819 -0.001026 0.000000
vt 0.002819 0.001026 0.000000
vt 0.001500 0.002598 0.000000
vt -0.000521 0.002954 0.000000
vt -0.002298 0.001928 0.000000
vt 0.002000 0.000000 0.000000
vt 0.001532 0.001286 0.000000
vt 0.000347 0.001970 0.000000
vt -0.001000 0.001732 0.000000
vt -0.001879 0.000684 0.000000
vt -0.001879 -0.000684 0.000000
vt -0.001000 -0.001732 0.000000
vt 0.000347 -0.001970 0.000000
vt 0.001532 -0.001286 0.000000
vt -0.001250 0.000000 0.000000
vt -0.000958 0.000803 0.000000
vt -0.000217 0.001231 0.000000
vt 0.000625 0.001083 0.000000
vt 0.001175 0.000428 0.000000
vt 0.001175 -0.000428 0.000000
vt 0.000625 -0.001083 0.000000
vt -0.000217 -0.001231 0.000000
vt -0.000958 -0.000803 0.000000
vt -0.002000 0.000000 0.000000
vt -0.001532 -0.001286 0.000000
vt -0.000347 -0.001970 0.000000
vt 0.001000 -0.001732 0.000000
vt 0.001879 -0.000684 0.000000
vt 0.001879 0.000684 0.000000
vt 0.001000 0.001732 0.000000
vt -0.000347 0.001970 0.000000
vt -0.001532 0.001286 0.000000
vn 0.100000 0.000000 0.000000
vn 0.076604 0.064279 0.000000
vn 0.017365 0.098481 0.000000
vn -0.050000 0.086603 0.000000
vn -0.093969 0.034202 0.000000
vn -0.093969 -0.034202 0.000000
vn -0.050000 -0.086603 0.000000
vn 0.017365 -0.098481 0.000000
vn 0.076604 -0.064279 0.000000
vn 0.100000 0.000000 0.000000
vn 0.076604 -0.064279 0.000000
vn 0.017365 -0.098481 0.000000
vn -0.050000 -0.086603 0.000000
vn -0.093969 -0.034202 0.000000
vn -0.093969 0.034202 0.000000
vn -0.050000 0.086603 0.000000
vn 0.017365 0.098481 0.000000
vn 0.076604 0.064279 0.000000
vn -0.093969 -0.034202 0.000000
vn -0.093969 -0.034202 0.000000
vn -0.093969 -0.034202 0.000000
vn -0.093969 -0.034202 0.000000
vn -0.100000 0.000000 0.000000
vn -0.076604 0.064279 0.000000
vn -0.017365 0.098481 0.000000
vn 0.050000 0.086603 0.000000
vn 0.093969 0.034202 0.000000
vn 0.093969 -0.034202 0.000000
vn 0.050000 -0.086603 0.000000
vn -0.017365 -0.098481 0.000000
vn -0.076604 -0.064279 0.000000
vn -0.100000 0.000000 0.000000
vn -0.076604 -0.064279 0.000000
vn -0.017365 -0.098481 0.000000
vn 0.050000 -0.086603 0.000000
vn 0.093969 -0.034202 0.000000
vn 0.093969 0.034202 0.000000
vn 0.050000 0.086603 0.000000
vn -0.017365 0.098481 0.000000
vn -0.076604 0.064279 0.000000
vn 0.093969 -0.034202 0.000000
vn 0.093969 -0.034202 0.000000
vn 0.093969 -0.034202 0.000000
vn 0.093969 -0.034202 0.000000
vn -0.100000 0.000000 0.000000
vn -0.076604 0.064279 0.000000
vn -0.017365 0.098481 0.000000
vn 0.050000 0.086603 0.000000
vn 0.093969 0.034202 0.000000
vn 0.093969 -0.034202 0.000000
vn 0.050000 -0.086603 0.000000
vn -0.017365 -0.098481 0.000000
vn -0.076604 -0.064279 0.000000
vn -0.100000 0.000000 0.000000
vn -0.076604 -0.064279 0.000000
vn -0.017365 -0.098481 0.000000
vn 0.050000 -0.086603 0.000000
vn 0.093969 -0.034202 0.000000
vn 0.093969 0.034202 0.000000
vn 0.050000 0.086603 0.000000
vn -0.017365 0.098481 0.000000
vn -0.076604 0.064279 0.000000
vn 0.093969 -0.034202 0.000000
vn 0.093969 -0.034202 0.000000
vn 0.093969 -0.034202 0.000000
vn 0.093969 -0.034202 0.000000
vn -0.100000 0.000000 0.000000
vn -0.076604 0.064279 0.000000
vn -0.017365 0.098481 0.000000
vn 0.050000 0.086603 0.000000
vn 0.093969 0.034202 0.000000
vn 0.093969 -0.034202 0.000000
vn 0.050000 -0.086603 0.000000
vn -0.017365 -0.098481 0.000000
vn -0.076604 -0.064279 0.000000
vn -0.100000 0.000000 0.000000
vn -0.076604 -0.064279 0.000000
vn -0.017365 -0.098481 0.000000
vn 0.050000 -0.086603 0.000000
vn 0.093969 -0.034202 0.000000
vn 0.093969 0.034202 0.000000
vn 0.050000 0.086603 0.000000
vn -0.017365 0.098481 0.000000
vn -0.076604 0.064279 0.000000
vn 0.093969 -0.034202 0.000000
vn 0.093969 -0.034202 0.000000
vn 0.093969 -0.034202 0.000000
vn 0.093969 -0.034202 0.000000
vn 0.000000 0.000000 -0.100000
vn 0.000000 0.000000 -0.100000
vn 0.000000 0.000000 -0.100000
vn 0.000000 0.000000 -0.100000
vn 0.000000 0.000000 -0.100000
vn 0.000000 0.000000 -0.100000
vn 0.000000 0.000000 -0.100000
vn 0.000000 0.000000 -0.100000
vn 0.000000 0.000000 -0.100000
vn 0.000000 0.000000 -0.100000
vn 0.000000 0.000000 -0.100000
vn 0.000000 0.000000 -0.100000
vn 0.000000 0.000000 -0.100000
vn 0.000000 0.000000 -0.100000
vn 0.000000 0.000000 -0.100000
vn 0.000000 0.000000 -0.100000
vn 0.000000 0.000000 -0.100000
vn 0.000000 0.000000 -0.100000
vn 0.000000 0.000000 -0.100000
vn 0.000000 0.000000 -0.100000
vn 0.000000 0.000000 -0.100000
vn 0.000000 0.000000 -0.100000
vn 0.000000 0.000000 -0.100000
vn 0.000000 0.000000 -0.100000
vn 0.000000 0.000000 -0.100000
vn 0.000000 0.000000 -0.100000
vn 0.000000 0.000000 -0.100000
vn 0.000000 0.000000 -0.100000
vn 0.000000 0.000000 -0.100000
vn 0.000000 0.000000 -0.100000
vn 0.000000 0.000000 -0.100000
vn 0.000000 0.000000 -0.100000
vn 0.000000 0.000000 -0.100000
vn 0.000000 0.000000 -0.100000
vn 0.000000 0.000000 -0.100000
vn 0.000000 0.000000 -0.100000
vn 0.000000 0.000000 0.100000
vn 0.000000 0.000000 0.100000
vn 0.000000 0.000000 0.100000
vn 0.000000 0.000000 0.100000
vn 0.000000 0.000000 0.100000
vn 0.000000 0.000000 0.100000
vn 0.000000 0.000000 0.100000
vn 0.000000 0.000000 0.100000
vn 0.000000 0.000000 0.100000
vn 0.000000 0.000000 0.100000
vn 0.000000 0.000000 0.100000
vn 0.000000 0.000000 0.100000
vn 0.000000 0.000000 0.100000
vn 0.000000 0.000000 0.100000
vn 0.000000 0.000000 0.100000
vn 0.000000 0.000000 0.100000
vn 0.000000 0.000000 0.100000
vn 0.000000 0.000000 0.100000
vn 0.000000 0.000000 0.100000
vn 0.000000 0.000000 0.100000
vn 0.000000 0.000000 0.100000
vn 0.000000 0.000000 0.100000
vn 0.000000 0.000000 0.100000
vn 0.000000 0.000000 0.100000
vn 0.000000 0.000000 0.100000
vn 0.000000 0.000000 0.100000
vn 0.000000 0.000000 0.100000
vn 0.000000 0.000000 -0.100000
vn 0.000000 0.000000 -0.100000
vn 0.000000 0.000000 -0.100000
vn 0.000000 0.000000 -0.100000
vn 0.000000 0.000000 -0.100000
vn 0.000000 0.000000 -0.100000
vn 0.000000 0.000000 -0.100000
vn 0.000000 0.000000 -0.100000
vn 0.000000 0.000000 -0.100000
usemtl 228,228,228
f 61/2/2 68/10/10 67/1/1
f 67/1/1 68/10/10 60/11/11
f 67/1/1 60/11/11 59/9/9
f 59/9/9 60/11/11 40/12/12
f 59/9/9 40/12/12 39/8/8
f 39/8/8 40/12/12 20/13/13
f 39/8/8 20/13/13 19/7/7
f 19/7/7 20/13/13 10/19/19
f 19/7/7 10/20/20 9/6/6
f 9/21/21 10/14/14 12/15/15
f 9/22/22 12/15/15 11/5/5
f 11/5/5 12/15/15 22/16/16
f 11/5/5 22/16/16 21/4/4
f 21/4/4 22/16/16 42/17/17
f 21/4/4 42/17/17 41/3/3
f 41/3/3 42/17/17 62/18/18
f 41/3/3 62/18/18 61/2/2
f 61/2/2 62/18/18 68/10/10
usemtl 150,150,160
f 6/24/24 1/32/32 2/23/23
f 2/23/23 1/32/32 3/33/33
f 2/23/23 3/33/33 4/31/31
f 4/31/31 3/33/33 27/34/34
f 4/31/31 27/34/34 28/30/30
f 28/30/30 27/34/34 55/35/35
f 28/30/30 55/35/35 56/29/29
f 56/29/29 55/35/35 69/41/41
f 56/29/29 69/42/42 70/28/28
f 70/43/43 69/36/36 71/37/37
f 70/44/44 71/37/37 72/27/27
f 72/27/27 71/37/37 57/38/38
f 72/27/27 57/38/38 58/26/26
f 58/26/26 57/38/38 29/39/39
f 58/26/26 29/39/39 30/25/25
f 30/25/25 29/39/39 5/40/40
f 30/25/25 5/40/40 6/24/24
f 6/24/24 5/40/40 1/32/32
f 16/46/46 7/54/54 8/45/45
f 8/45/45 7/54/54 13/55/55
f 8/45/45 13/55/55 14/53/53
f 14/53/53 13/55/55 31/56/56
f 14/53/53 31/56/56 32/52/52
f 32/52/52 31/56/56 47/57/57
f 32/52/52 47/57/57 48/51/51
f 48/51/51 47/57/57 63/63/63
f 48/51/51 63/64/64 64/50/50
f 64/65/65 63/58/58 65/59/59
f 64/66/66 65/59/59 66/49/49
f 66/49/49 65/59/59 49/60/60
f 66/49/49 49/60/60 50/48/48
f 50/48/48 49/60/60 33/61/61
f 50/48/48 33/61/61 34/47/47
f 34/47/47 33/61/61 15/62/62
f 34/47/47 15/62/62 16/46/46
f 16/46/46 15/62/62 7/54/54
usemtl 228,228,228
f 26/68/68 17/76/76 18/67/67
f 18/67/67 17/76/76 23/77/77
f 18/67/67 23/77/77 24/75/75
f 24/75/75 23/77/77 35/78/78
f 24/75/75 35/78/78 36/74/74
f 36/74/74 35/78/78 43/79/79
f 36/74/74 43/79/79 44/73/73
f 44/73/73 43/79/79 51/85/85
f 44/73/73 51/86/86 52/72/72
f 52/87/87 51/80/80 53/81/81
f 52/88/88 53/81/81 54/71/71
f 54/71/71 53/81/81 45/82/82
f 54/71/71 45/82/82 46/70/70
f 46/70/70 45/82/82 37/83/83
f 46/70/70 37/83/83 38/69/69
f 38/69/69 37/83/83 25/84/84
f 38/69/69 25/84/84 26/68/68
f 26/68/68 25/84/84 17/76/76
usemtl 150,150,160
f 13/97/97 7/89/89 18/98/98
f 18/98/98 7/89/89 15/90/90
f 18/98/98 15/90/90 26/106/106
f 26/106/106 15/90/90 33/91/91
f 26/106/106 33/91/91 38/105/105
f 38/105/105 33/91/91 46/104/104
f 46/104/104 33/91/91 49/92/92
f 46/104/104 49/92/92 54/103/103
f 54/103/103 49/92/92 65/93/93
f 54/103/103 65/93/93 63/94/94
f 54/103/103 63/94/94 52/102/102
f 52/102/102 63/94/94 47/95/95
f 52/102/102 47/95/95 44/101/101
f 44/101/101 47/95/95 31/96/96
f 44/101/101 31/96/96 36/100/100
f 36/100/100 31/96/96 24/99/99
f 24/99/99 31/96/96 13/97/97
f 24/99/99 13/97/97 18/98/98
f 3/115/115 1/107/107 8/116/116
f 8/116/116 1/107/107 5/108/108
f 8/116/116 5/108/108 16/124/124
f 16/124/124 5/108/108 29/109/109
f 16/124/124 29/109/109 34/123/123
f 34/123/123 29/109/109 50/122/122
f 50/122/122 29/109/109 57/110/110
f 50/122/122 57/110/110 66/121/121
f 66/121/121 57/110/110 71/111/111
f 66/121/121 71/111/111 69/112/112
f 66/121/121 69/112/112 64/120/120
f 64/120/120 69/112/112 55/113/113
f 64/120/120 55/113/113 48/119/119
f 48/119/119 55/113/113 27/114/114
f 48/119/119 27/114/114 32/118/118
f 32/118/118 27/114/114 14/117/117
f 14/117/117 27/114/114 3/115/115
f 14/117/117 3/115/115 8/116/116
f 2/125/125 4/126/126 6/133/133
f 6/133/133 4/126/126 28/127/127
f 6/133/133 28/127/127 30/132/132
f 30/132/132 28/127/127 56/128/128
f 30/132/132 56/128/128 58/131/131
f 58/131/131 56/128/128 70/129/129
f 58/131/131 70/129/129 72/130/130
usemtl 228,228,228
f 62/135/135 53/147/147 68/134/134
f 68/134/134 53/147/147 51/148/148
f 68/134/134 51/148/148 60/142/142
f 60/142/142 51/148/148 43/149/149
f 60/142/142 43/149/149 40/141/141
f 40/141/141 43/149/149 35/150/150
f 40/141/141 35/150/150 20/140/140
f 20/140/140 35/150/150 23/151/151
f 20/140/140 23/151/151 10/139/139
f 10/139/139 23/151/151 17/143/143
f 10/139/139 17/143/143 12/138/138
f 12/138/138 17/143/143 25/144/144
f 12/138/138 25/144/144 22/137/137
f 22/137/137 25/144/144 37/145/145
f 22/137/137 37/145/145 42/136/136
f 42/136/136 37/145/145 45/146/146
f 42/136/136 45/146/146 62/135/135
f 62/135/135 45/146/146 53/147/147
f 67/152/152 59/153/153 61/160/160
f 61/160/160 59/153/153 39/154/154
f 61/160/160 39/154/154 41/159/159
f 41/159/159 39/154/154 19/155/155
f 41/159/159 19/155/155 21/158/158
f 21/158/158 19/155/155 9/156/156
f 21/158/158 9/156/156 11/157/157

# 72 vertices
# 160 texture params
# 160 normals
# 140 facets

# 1 groups
